<svg width="230" height="50" viewBox="0 0 230 50" fill="none" xmlns="http://www.w3.org/2000/svg">
<path fill-rule="evenodd" clip-rule="evenodd" d="M25 0.505001C24.8337 0.501672 24.6671 0.5 24.5 0.5C10.969 0.5 0 11.469 0 25C0 38.531 10.969 49.5 24.5 49.5C24.6671 49.5 24.8337 49.4983 25 49.495V0.505001Z" fill="white"/>
<circle cx="49.5" cy="25" r="24.5" fill="white"/>
<path d="M87.0408 16.38C87.0408 16.86 87.1274 17.2667 87.3008 17.6C87.4741 17.9333 87.7008 18.2067 87.9808 18.42C88.2741 18.62 88.6141 18.7733 89.0008 18.88C89.3874 18.9733 89.7874 19.02 90.2008 19.02C90.4808 19.02 90.7808 19 91.1008 18.96C91.4208 18.9067 91.7208 18.8133 92.0008 18.68C92.2808 18.5467 92.5141 18.3667 92.7008 18.14C92.8874 17.9 92.9808 17.6 92.9808 17.24C92.9808 16.8533 92.8541 16.54 92.6008 16.3C92.3608 16.06 92.0408 15.86 91.6408 15.7C91.2408 15.54 90.7874 15.4 90.2808 15.28C89.7741 15.16 89.2608 15.0267 88.7408 14.88C88.2074 14.7467 87.6874 14.5867 87.1808 14.4C86.6741 14.2 86.2208 13.9467 85.8208 13.64C85.4208 13.3333 85.0941 12.9533 84.8408 12.5C84.6008 12.0333 84.4808 11.4733 84.4808 10.82C84.4808 10.0867 84.6341 9.45333 84.9408 8.92C85.2608 8.37333 85.6741 7.92 86.1808 7.56C86.6874 7.2 87.2608 6.93333 87.9008 6.76C88.5408 6.58667 89.1808 6.5 89.8208 6.5C90.5674 6.5 91.2808 6.58667 91.9608 6.76C92.6541 6.92 93.2674 7.18667 93.8008 7.56C94.3341 7.93333 94.7541 8.41333 95.0608 9C95.3808 9.57333 95.5408 10.2733 95.5408 11.1H92.5008C92.4741 10.6733 92.3808 10.32 92.2208 10.04C92.0741 9.76 91.8741 9.54 91.6208 9.38C91.3674 9.22 91.0741 9.10667 90.7408 9.04C90.4208 8.97333 90.0674 8.94 89.6808 8.94C89.4274 8.94 89.1741 8.96667 88.9208 9.02C88.6674 9.07333 88.4341 9.16667 88.2208 9.3C88.0208 9.43333 87.8541 9.6 87.7208 9.8C87.5874 10 87.5208 10.2533 87.5208 10.56C87.5208 10.84 87.5741 11.0667 87.6808 11.24C87.7874 11.4133 87.9941 11.5733 88.3008 11.72C88.6208 11.8667 89.0541 12.0133 89.6008 12.16C90.1608 12.3067 90.8874 12.4933 91.7808 12.72C92.0474 12.7733 92.4141 12.8733 92.8808 13.02C93.3608 13.1533 93.8341 13.3733 94.3008 13.68C94.7674 13.9867 95.1674 14.4 95.5008 14.92C95.8474 15.4267 96.0208 16.08 96.0208 16.88C96.0208 17.5333 95.8941 18.14 95.6408 18.7C95.3874 19.26 95.0074 19.7467 94.5008 20.16C94.0074 20.56 93.3874 20.8733 92.6408 21.1C91.9074 21.3267 91.0541 21.44 90.0808 21.44C89.2941 21.44 88.5274 21.34 87.7808 21.14C87.0474 20.9533 86.3941 20.6533 85.8208 20.24C85.2608 19.8267 84.8141 19.3 84.4808 18.66C84.1474 18.02 83.9874 17.26 84.0008 16.38H87.0408Z" fill="white"/>
<path d="M101.489 15.6H105.189L103.389 10.36H103.349L101.489 15.6ZM101.789 6.84H105.009L110.349 21.12H107.089L106.009 17.94H100.669L99.5491 21.12H96.3891L101.789 6.84Z" fill="white"/>
<path d="M111.58 6.84H114.7L120.66 16.42H120.7V6.84H123.64V21.12H120.5L114.56 11.56H114.52V21.12H111.58V6.84Z" fill="white"/>
<path d="M128.925 14.04C128.925 14.64 128.991 15.2267 129.125 15.8C129.271 16.36 129.498 16.8667 129.805 17.32C130.111 17.7733 130.511 18.14 131.005 18.42C131.498 18.6867 132.098 18.82 132.805 18.82C133.511 18.82 134.111 18.6867 134.605 18.42C135.098 18.14 135.498 17.7733 135.805 17.32C136.111 16.8667 136.331 16.36 136.465 15.8C136.611 15.2267 136.685 14.64 136.685 14.04C136.685 13.4133 136.611 12.8067 136.465 12.22C136.331 11.6333 136.111 11.1133 135.805 10.66C135.498 10.1933 135.098 9.82667 134.605 9.56C134.111 9.28 133.511 9.14 132.805 9.14C132.098 9.14 131.498 9.28 131.005 9.56C130.511 9.82667 130.111 10.1933 129.805 10.66C129.498 11.1133 129.271 11.6333 129.125 12.22C128.991 12.8067 128.925 13.4133 128.925 14.04ZM125.785 14.04C125.785 12.9733 125.945 11.9867 126.265 11.08C126.585 10.16 127.045 9.36 127.645 8.68C128.245 8 128.978 7.46667 129.845 7.08C130.725 6.69333 131.711 6.5 132.805 6.5C133.911 6.5 134.898 6.69333 135.765 7.08C136.631 7.46667 137.365 8 137.965 8.68C138.565 9.36 139.025 10.16 139.345 11.08C139.665 11.9867 139.825 12.9733 139.825 14.04C139.825 15.08 139.665 16.0533 139.345 16.96C139.025 17.8533 138.565 18.6333 137.965 19.3C137.365 19.9667 136.631 20.4933 135.765 20.88C134.898 21.2533 133.911 21.44 132.805 21.44C131.711 21.44 130.725 21.2533 129.845 20.88C128.978 20.4933 128.245 19.9667 127.645 19.3C127.045 18.6333 126.585 17.8533 126.265 16.96C125.945 16.0533 125.785 15.08 125.785 14.04Z" fill="white"/>
<path d="M145.571 15.6H149.271L147.471 10.36H147.431L145.571 15.6ZM145.871 6.84H149.091L154.431 21.12H151.171L150.091 17.94H144.751L143.631 21.12H140.471L145.871 6.84Z" fill="white"/>
<path d="M156.987 9.48H152.707V6.84H164.407V9.48H160.127V21.12H156.987V9.48Z" fill="white"/>
<path d="M84.9008 28.84H88.0408V34.76L93.6208 28.84H97.5408L91.9608 34.48L98.0808 43.12H94.1408L89.8408 36.7L88.0408 38.52V43.12H84.9008V28.84Z" fill="white"/>
<path d="M101.854 36.04C101.854 36.64 101.921 37.2267 102.054 37.8C102.201 38.36 102.428 38.8667 102.734 39.32C103.041 39.7733 103.441 40.14 103.934 40.42C104.428 40.6867 105.028 40.82 105.734 40.82C106.441 40.82 107.041 40.6867 107.534 40.42C108.028 40.14 108.428 39.7733 108.734 39.32C109.041 38.8667 109.261 38.36 109.394 37.8C109.541 37.2267 109.614 36.64 109.614 36.04C109.614 35.4133 109.541 34.8067 109.394 34.22C109.261 33.6333 109.041 33.1133 108.734 32.66C108.428 32.1933 108.028 31.8267 107.534 31.56C107.041 31.28 106.441 31.14 105.734 31.14C105.028 31.14 104.428 31.28 103.934 31.56C103.441 31.8267 103.041 32.1933 102.734 32.66C102.428 33.1133 102.201 33.6333 102.054 34.22C101.921 34.8067 101.854 35.4133 101.854 36.04ZM98.7144 36.04C98.7144 34.9733 98.8744 33.9867 99.1944 33.08C99.5144 32.16 99.9744 31.36 100.574 30.68C101.174 30 101.908 29.4667 102.774 29.08C103.654 28.6933 104.641 28.5 105.734 28.5C106.841 28.5 107.828 28.6933 108.694 29.08C109.561 29.4667 110.294 30 110.894 30.68C111.494 31.36 111.954 32.16 112.274 33.08C112.594 33.9867 112.754 34.9733 112.754 36.04C112.754 37.08 112.594 38.0533 112.274 38.96C111.954 39.8533 111.494 40.6333 110.894 41.3C110.294 41.9667 109.561 42.4933 108.694 42.88C107.828 43.2533 106.841 43.44 105.734 43.44C104.641 43.44 103.654 43.2533 102.774 42.88C101.908 42.4933 101.174 41.9667 100.574 41.3C99.9744 40.6333 99.5144 39.8533 99.1944 38.96C98.8744 38.0533 98.7144 37.08 98.7144 36.04Z" fill="white"/>
<path d="M118.041 35.3H121.481C122.201 35.3 122.741 35.14 123.101 34.82C123.461 34.5 123.641 33.98 123.641 33.26C123.641 32.5667 123.461 32.0667 123.101 31.76C122.741 31.44 122.201 31.28 121.481 31.28H118.041V35.3ZM114.901 28.84H122.601C123.241 28.84 123.814 28.9467 124.321 29.16C124.841 29.36 125.281 29.64 125.641 30C126.014 30.36 126.294 30.78 126.481 31.26C126.681 31.7267 126.781 32.2333 126.781 32.78C126.781 33.62 126.601 34.3467 126.241 34.96C125.894 35.5733 125.321 36.04 124.521 36.36V36.4C124.907 36.5067 125.227 36.6733 125.481 36.9C125.734 37.1133 125.941 37.3733 126.101 37.68C126.261 37.9733 126.374 38.3 126.441 38.66C126.521 39.02 126.574 39.38 126.601 39.74C126.614 39.9667 126.627 40.2333 126.641 40.54C126.654 40.8467 126.674 41.16 126.701 41.48C126.741 41.8 126.794 42.1067 126.861 42.4C126.941 42.68 127.054 42.92 127.201 43.12H124.061C123.887 42.6667 123.781 42.1267 123.741 41.5C123.701 40.8733 123.641 40.2733 123.561 39.7C123.454 38.9533 123.227 38.4067 122.881 38.06C122.534 37.7133 121.967 37.54 121.181 37.54H118.041V43.12H114.901V28.84Z" fill="white"/>
<path d="M132.834 35.64L128.234 28.84H131.874L134.674 33.4L137.574 28.84H141.014L136.434 35.66L141.414 43.12H137.674L134.554 38.18L131.374 43.12H127.854L132.834 35.64Z" fill="white"/>
<path d="M145.194 36.04C145.194 36.64 145.261 37.2267 145.394 37.8C145.541 38.36 145.768 38.8667 146.074 39.32C146.381 39.7733 146.781 40.14 147.274 40.42C147.768 40.6867 148.368 40.82 149.074 40.82C149.781 40.82 150.381 40.6867 150.874 40.42C151.368 40.14 151.768 39.7733 152.074 39.32C152.381 38.8667 152.601 38.36 152.734 37.8C152.881 37.2267 152.954 36.64 152.954 36.04C152.954 35.4133 152.881 34.8067 152.734 34.22C152.601 33.6333 152.381 33.1133 152.074 32.66C151.768 32.1933 151.368 31.8267 150.874 31.56C150.381 31.28 149.781 31.14 149.074 31.14C148.368 31.14 147.768 31.28 147.274 31.56C146.781 31.8267 146.381 32.1933 146.074 32.66C145.768 33.1133 145.541 33.6333 145.394 34.22C145.261 34.8067 145.194 35.4133 145.194 36.04ZM142.054 36.04C142.054 34.9733 142.214 33.9867 142.534 33.08C142.854 32.16 143.314 31.36 143.914 30.68C144.514 30 145.248 29.4667 146.114 29.08C146.994 28.6933 147.981 28.5 149.074 28.5C150.181 28.5 151.168 28.6933 152.034 29.08C152.901 29.4667 153.634 30 154.234 30.68C154.834 31.36 155.294 32.16 155.614 33.08C155.934 33.9867 156.094 34.9733 156.094 36.04C156.094 37.08 155.934 38.0533 155.614 38.96C155.294 39.8533 154.834 40.6333 154.234 41.3C153.634 41.9667 152.901 42.4933 152.034 42.88C151.168 43.2533 150.181 43.44 149.074 43.44C147.981 43.44 146.994 43.2533 146.114 42.88C145.248 42.4933 144.514 41.9667 143.914 41.3C143.314 40.6333 142.854 39.8533 142.534 38.96C142.214 38.0533 142.054 37.08 142.054 36.04Z" fill="white"/>
<path d="M158.241 28.84H161.361L167.321 38.42H167.361V28.84H170.301V43.12H167.161L161.221 33.56H161.181V43.12H158.241V28.84Z" fill="white"/>
<path d="M176.665 37.6H180.365L178.565 32.36H178.525L176.665 37.6ZM176.965 28.84H180.185L185.525 43.12H182.265L181.185 39.94H175.845L174.725 43.12H171.565L176.965 28.84Z" fill="white"/>
<path d="M186.756 28.84H189.896V40.48H196.856V43.12H186.756V28.84Z" fill="white"/>
<path d="M202.212 37.6H205.912L204.112 32.36H204.072L202.212 37.6ZM202.512 28.84H205.732L211.072 43.12H207.812L206.732 39.94H201.392L200.272 43.12H197.112L202.512 28.84Z" fill="white"/>
<path d="M215.443 35.3H218.883C219.603 35.3 220.143 35.14 220.503 34.82C220.863 34.5 221.043 33.98 221.043 33.26C221.043 32.5667 220.863 32.0667 220.503 31.76C220.143 31.44 219.603 31.28 218.883 31.28H215.443V35.3ZM212.303 28.84H220.003C220.643 28.84 221.216 28.9467 221.723 29.16C222.243 29.36 222.683 29.64 223.043 30C223.416 30.36 223.696 30.78 223.883 31.26C224.083 31.7267 224.183 32.2333 224.183 32.78C224.183 33.62 224.003 34.3467 223.643 34.96C223.296 35.5733 222.723 36.04 221.923 36.36V36.4C222.31 36.5067 222.63 36.6733 222.883 36.9C223.136 37.1133 223.343 37.3733 223.503 37.68C223.663 37.9733 223.776 38.3 223.843 38.66C223.923 39.02 223.976 39.38 224.003 39.74C224.016 39.9667 224.03 40.2333 224.043 40.54C224.056 40.8467 224.076 41.16 224.103 41.48C224.143 41.8 224.196 42.1067 224.263 42.4C224.343 42.68 224.456 42.92 224.603 43.12H221.463C221.29 42.6667 221.183 42.1267 221.143 41.5C221.103 40.8733 221.043 40.2733 220.963 39.7C220.856 38.9533 220.63 38.4067 220.283 38.06C219.936 37.7133 219.37 37.54 218.583 37.54H215.443V43.12H212.303V28.84Z" fill="white"/>
<path d="M226.737 28.84H229.877V43.12H226.737V28.84Z" fill="white"/>
</svg>
